/* XPM */
static char *e0c55c2129de455dc24b110c86a38e02Sa0RpvZTuorAr1k2[] = {
/* columns rows colors chars-per-pixel */
"64 64 111 2 ",
"   c #000000",
".  c #080706",
"X  c #090807",
"o  c #020709",
"O  c #0D0D0D",
"+  c #100F0D",
"@  c #13110E",
"#  c #1D1109",
"$  c #151311",
"%  c #191510",
"&  c #1D1912",
"*  c #1C1B1A",
"=  c #261706",
"-  c #23160D",
";  c #261A0D",
":  c #291C0E",
">  c #321E0C",
",  c #241710",
"<  c #251B12",
"1  c #2B1E12",
"2  c #241F19",
"3  c #2D220F",
"4  c #39250A",
"5  c #262016",
"6  c #2D2214",
"7  c #27211A",
"8  c #2D251A",
"9  c #332515",
"0  c #392614",
"q  c #352914",
"w  c #3C2E16",
"e  c #32261B",
"r  c #35291B",
"t  c #3A2D1C",
"y  c #3C311E",
"u  c #2F2923",
"i  c #332B21",
"p  c #392E21",
"a  c #3D3223",
"s  c #3C3329",
"d  c #432916",
"f  c #492E16",
"g  c #412C19",
"h  c #4F3510",
"j  c #41331E",
"k  c #4C3D1F",
"l  c #50331F",
"z  c #513F1E",
"x  c #5A3B19",
"c  c #6C3D1A",
"v  c #423523",
"b  c #453824",
"n  c #4A3B26",
"m  c #433628",
"M  c #453929",
"N  c #4C3D2A",
"B  c #523D27",
"V  c #523E29",
"C  c #6F4412",
"Z  c #7D7002",
"A  c #4E412D",
"S  c #554126",
"D  c #584426",
"F  c #54432D",
"G  c #5A442A",
"H  c #5B492C",
"J  c #5F512B",
"K  c #4A4234",
"L  c #534532",
"P  c #5A4932",
"I  c #594D39",
"U  c #5F533D",
"Y  c #634B26",
"T  c #614C2C",
"R  c #724923",
"E  c #634D33",
"W  c #675231",
"Q  c #695437",
"!  c #645139",
"~  c #695C3B",
"^  c #766E2B",
"/  c #7B6E2E",
"(  c #726B39",
")  c #565048",
"_  c #635B41",
"`  c #6C5E4A",
"'  c #625E58",
"]  c #6C634A",
"[  c #7F6543",
"{  c #8C4B0E",
"}  c #A85500",
"|  c #927616",
" . c #885929",
".. c #847738",
"X. c #D17221",
"o. c #867941",
"O. c DarkOrange",
"+. c #FF942A",
"@. c #FF962B",
"#. c #8D8047",
"$. c #82816E",
"%. c #858177",
"&. c #8F8B7F",
"*. c #B08C62",
"=. c #A9906D",
"-. c #C59462",
";. c #E9AF74",
":. c #DEC9AC",
">. c #E6DFCB",
",. c #FFF3CE",
"<. c #FFFBD8",
/* pixels */
"                                                                                                                                "
"                                                                                                                                "
"                                                                                                                                "
"                                                                                                                                "
"                                                                                                                                "
"                                                                                                                                "
"                                                                                                                                "
"                                                                                                                                "
"                                                                                                                                "
"                                                                                                                                "
"                                                                                                                                "
"                                                                                                                                "
"                                                                                                                                "
"                                                                                                                                "
"                                                                                                                                "
"                                                                                                                                "
"                                                                                                                                "
"                                                                                                                                "
"                                                                                                                                "
"                                                                                                                                "
"                                                                                                                                "
"                                                                                                                                "
"                                                                                                                                "
"                                                                                                                                "
"                                                                                                                                "
"                                                                                                                                "
"                                  x                                                                                             "
"                              t X.O.-.&.)                                                                                       "
"                            f @.@.;.,.<.=.G L u                                                                                 "
"                            d } *.>.:.o.h Y T E L M i                                                                           "
"                              c R $.U 4 E G S D F n M m m i %                                                                   "
"                              l { ` ' 6 w v n b m v v B P P L K i &                                                             "
"                                C  .%.K = 9 9 6 r y F P L V N L P U M 7 %                                                       "
"                                y | ( ] 0 9 e 2 < 9 y v N F L F A M v m M a 8 %                                                 "
"                                  ^ Z ..J r p 1 < 1 ; 6 w p b V N w t y y a b v p u * X                                         "
"                                  6 / #.o.k n s e < - 9 9 6 : e r t a y y t t t t s s s u 2                                     "
"                                      u _ ~ S N m M r 9 3 6 9 e 1 1 : e p y p i t r 8 r i v s                                   "
"                                          2 r N B B V n j 9 1 9 6 - - , 5 8 8 t t t t r r e s <                                 "
"                                                8 n G D S B v 9 6 : ; , < < < 1 6 6 r r e i r p                                 "
"                                                    1 v D z N N v r : ; : < 1 : ; ; 6 8 i e r p 2                               "
"                                                        2 y A A M v t 6 : : - - : < - 1 i i e w t                               "
"                                                              a N N v q 9 r 9 - # - , , 8 i 9 > V 7                             "
"                                                                  p N a 9 w N n e , , - 1 i 6 g ! L                             "
"                                                                      i v 0 t F V v e < # ; t P H W                             "
"                                                                          1 t N M M v t 9 1 L H S E M                           "
"                                                                              i L F m r e t V D S G P                           "
"                                                                                  8 v j q 3 w G S W t                           "
"                                                                                      2 r w w N Q n                             "
"                                                                                          & 9 S L                               "
"                                                                                                                                "
"                                                                                                                                "
"                                                                                                                                "
"                                                                                                                                "
"                                                                                                                                "
"                                                                                                                                "
"                                                                                                                                "
"                                                                                                                                "
"                                                                                                                                "
"                                                                                                                                "
"                                                                                                                                "
"                                                                                                                                "
"                                                                                                                                "
"                                                                                                                                "
"                                                                                                                                "
};
