/* XPM */
static char *cb19ffec885446d486dbb37411042fceMhryE4JcqzBC8H6k[] = {
/* columns rows colors chars-per-pixel */
"64 64 62 1 ",
"  c #4D861D",
". c #528D22",
"X c #559226",
"o c #569229",
"O c #5A952C",
"+ c #5C992E",
"@ c #5D9730",
"# c #5E9C32",
"$ c #629D34",
"% c #669E38",
"& c #6B9F3A",
"* c #5FA135",
"= c #64A136",
"- c #68A337",
"; c #66A33A",
": c #6BA53C",
"> c #6DA93E",
", c #70A73F",
"< c #70AB3F",
"1 c #6EA640",
"2 c #6EAB41",
"3 c #71A741",
"4 c #72AC44",
"5 c #76AF48",
"6 c #79AE49",
"7 c #6EB044",
"8 c #74B146",
"9 c #78B347",
"0 c #76B24A",
"q c #7BB44C",
"w c #77B94F",
"e c #7DB94F",
"r c #7EB750",
"t c #7DBA52",
"y c #7EC054",
"u c #80B54D",
"i c #81B751",
"p c #82BB54",
"a c #86BF58",
"s c #88BF59",
"d c #85C157",
"f c #86C259",
"g c #8BC35C",
"h c #8CC95E",
"j c #90C55E",
"k c #8EC660",
"l c #8FCB61",
"z c #93C661",
"x c #93CB64",
"c c #98CD65",
"v c #96CF68",
"b c #99CE69",
"n c #93D165",
"m c #97D269",
"M c #9BD36B",
"N c #9CD96E",
"B c #9FD670",
"V c #A0D76F",
"C c #A1D570",
"Z c #A3DC74",
"A c #A2E075",
"S c #ADE47C",
/* pixels */
"wttprr111107;;00attt533122;1o@2wrwtprr112170*;89fatr534121;;o@2w",
"q005q5:12172**>4twtw13:122**XX76w006r4112222=*>8ttt5131122##oo75",
"qq54arr6w7**;>:;%1gkss55*@21;;>4r664ar06w2;*;>;;#1kfff48##71#114",
"q564pa6r001#>;==#;ffks0w;*72>>20q464pa0rw0>*>;*;#;fkgg9q;#071220",
"sgbbbz::22;;777809fagjhg;1@+*;lMgsbbbx&112;*77<90waakfgg;;+O#;xB",
"ssCCxz&&22>>70888qpahhjh1;oo*7xBssBCxz1&12>7898<00takkxh2;oO*7lB",
"%$13366r70e9$+#===::8,p9722221%1%$13365r49w0;O$$#;1:44iq872>;1=:",
"O@%333iq05w9=#=+==--44ue752271=#O@&331r6q8w9=+%@;#;;41te87>844-$",
"yw%2ka%2gkxg>3jgmh++$-gdhf=#4-34pw#4kk#1kklk,,jjMhOO$;gahd*#2:44",
"yk#1lk;1llla:,jcNl+X$,pjhf;=>>34tk*1kk11lklt,,jcMl$o$1pfhd;=1>,8",
"www0@%fa110e69au4280:::,#=#;446rtww0@%at:10t6qpu2449-:11#==;448i",
"wwt0@%ta@10ru9uu>;q9,-%%O@22446pwwt5@%aa#10rq6ue>:q93-1%o+21449i",
"27wwaa5507;=,,=-;;;1vvfa04apqq4517rraa5507**22==-;:>vvss50atqq44",
"##ragg5570;=4>+$*124xvvk40hkqq66#@rpks55551;22+=;;:8vvvk45kkqq66",
"5151ir1402**yd--qqkf411%24ft%:dj0251tr1407#*yd;>wqhg312#44st%&ak",
"5111ai4202#*ff;>rtkk11$145at$:gj5211pt4352#*ff;;qtxh:1#145st$1sx",
"%1iiMNsszs%1xkiizbhg%,,,:>89-+>-%:ppMBsszj%&bzuixxhf=,><->99=$:-",
";%epcMkzzp&3gziibbxp:,8q:-9<$$+-:-qtvvkzzi&3sspucMxp:>8q:-9<$+$=",
"q4-3Zb656666zz&&3399>8hf77nh8>*<q411BM5666u6cs&,,,q9>7hd28nh<>$-",
"qq-3vk3515irgs%%334099hf<8nh8>*-qe%3vk3533iizs$%<349w9hf29nh9<$<",
"trrrpikr::bx595emn++hy;>878>;>24peeittkp&1vv545umn+#hy;>7>7<;>><",
"pqaa0rkr$4vx8,4eAN+=hf**72;;;>99pusp6rkr%3vk9,8uZN+$hf*=7<>;;>7y",
"14ka42aa09>,q9:>ep477>**+;;-*#,3:5gs24aa0q12e8>>ee<82>***;--*#>>",
"11kk11kaqq-:9,4,qq982>#O==*##*>43:xk11far0%18<,,qe984>++*;*$+*>9",
"Mbr6=-42ww8>1;$+..8<,,$$eedpO$%3bxrq%%52ee8>>;$+..8,3>$$w9pp+@-<",
"Bxrr--42ee28$$=o  59:--$ppdp$@&3Cxrq%;22ew<9**-X  68::=$ddfp@@,,",
"BBkrOXOO=*-;->NMuuZVgstqpi48sskzZBspOoOO=*;;->NnuuZZhst9dp44ssjj",
"BvkaO+X+*+;=$>ZZdgSZhsetps,,sjzbBbka@Oo+#*===>AAajSZgsrrpp>,jjzb",
"kspp%:+$hhff89eq%-iiqe24xhpr55sajdpp$;#=hldf4qeq$%up0r22lkpr46ss",
"sadp>,+=nnhfee55%$ew89;1hprt35aajadp>1+=nnhfrr55%-eu5w11fart35as",
"33e9-=.+fdd9eexv<9Nn-=#1:20711rg3,e9-- +fddqqrmv<9Nl**#1120513ug",
"31eq8<X+hhedqpCNq9AN;=;;1%r044ak3,e98<X#hhtiqpNN99AN1#;;1;r044ss",
"rttpqw112>w7;-89aatr6221221;X@3eewtprq112>70=;80pftr514122;;o@7w",
"w066q511>>7<*=>8trt711:127#*XX40qqq5q51:2272#*>8ttt514:122##oo27",
"q064prr6w2;*->;;%2kkaa45##22;;>4q954prq0w2;*>>>;#1kgff44##711%14",
"r564pa6rw0>*;;==#*afkkqq;#2222<9q064paqrw0>*;;*=#;fgggq91#021220",
"ssbbbz::12;;<878w0sygghf;;o+=;lmgsbbbz::12;*78<8qwfagghg;;++#;xm",
"asCCcz&:12;2898750tskhch22o+->xNssCCbz:&12>2898800takkxh>;oO*2xN",
"%$13365q80ww$O@$#*1144r0077;:>-:%$13366r80w8*+@$#;1244tq07>>>1;:",
"O@%343rq089w%#&@;#1%34iw27274,-=O@%333i6q8e9=+&@%#;=13ie77>823;$",
"aw*4ka%4kklf13jjMloO%%jdkf**>-44aw;4kk#1kklk,,jjMhoO$;ffhf=#>-48",
"tf*1lk%1llka>3jcNl#o$,phkf;*1>34tf#1kf11lllt,,jcmx$o$1pkhf;=>>34",
"tww0@%at110r9qpu2208:--,@=*1450ttww0@1st:10r59pq4259::%1$=$;448i",
"wwtwO1tk$:9tq9uu1;w0,:--o+22245iwwt0@%aa#10ruqui>:99,-1%o+>1445p",
"11rraa0007;=>3%-;;;1cMfs05ttqq4512wraa5507**22=$-;:>vvka00atqq45",
"#@rpka5207;;4>+=;:>4xbxz56kkq6q9#@rpks54751;22+=;::8vvxk45kkqq66",
"0151pr1702**yd;;w9kg311=44ai%:pj0151tr1507@*yf;>9qhg312%44ap%&ak",
"4111pr5102#*fd;:qplk:>%-45ai%:gj0211pp3364#*ff;;rtxh:1#%40at$1sz",
"%;ptvBssxs%&xkrrxxhg-<>4->88-+>-%:ptbBsgzs%&czupxxhf=<,<->88=$--",
"1=epvvkkzp&6zziixMxp-,89:;98$*$-:%rpvbkzzi&3szpucmxp::89>-9<$$$-",
"q4%3BB665666zj&&3<99,8hd>8nh<<*:q4%4BM5366uuzz&&,,qq:7hd28nh<<$-",
"qe-3vk4435rrjs%&>489q9hf>8nh8<*;qe%1Mk5533iiss$%<<48wwhf29nh9>--",
"purripki;:mc655rmn$+fy;>9787;>28squitpkt&1vv588umn++hy->777<;>>7",
"pesp6ekr%4xx6&4rAm+=hf*;7<;;;;99pqap0qkr%3vx8,8uZN+=hf*;7<>-;>9w",
":5gs44aa0q>3q0&3pe>7<<+=*;=-*#><:4kf44aa0q11q9>>ep>8>>***;--*#>>",
"3:xk:1faqq=>0141w9987<+O==*+#=>831zh;1kaq0%18<<>eq984>++*=*$+*>8",
"Bxi9=;8<qq9>>;#+..8<,,$$eqppO$%3Mxtq%%42ee<><;$+..8443$$9edpO+-,",
"Bxrq;;<>tt28*==o  68-,-=dpgp@O:1Bbrq%:22ew<8=*-X  65--=$fpgp#@,,",
"ZBgpOo+O=*=;=,NmiqZVjdpqpp36sszjCBgrOoOO=*;-;>NmuuZVhfi9di34ssjj",
"BbhdOOX+##;*=,AAsgSAgduuis,3jscbBbka@Oo+#*=*=>AAajSZhsertd>3gjzb",
"kspp*-+*lhff4qe9$-iiwr22xgip44ssjdpp$;+$lldd4qrq$-upqq12lktt46ss",
"sasp><+-nnhgqi66==ee4011gdet45ssjpdd22+=lnhhqr50%%ee5w12karr35as",
"33e9--.+fdpqrqcx10Nn=$#1129431ug,4e9-= #fddqrrcx<9Ml**@1120533ug",
",3uq<<X+hhttqaZM0wAN;=;;2=qw44fg,,p9<<X#hhtiqpZN99AN1**12#r044ss"
};
