/* XPM */
static char *b0c00ae2b30c4f209ba6c5ec869f94ced8RsBylC2gMmTALa[] = {
/* columns rows colors chars-per-pixel */
"64 64 138 2 ",
"   c #654A1F",
".  c #6A4C1E",
"X  c #664C23",
"o  c #6A4D24",
"O  c #664E2A",
"+  c #6A4D2A",
"@  c #6B5225",
"#  c #6C5129",
"$  c #705029",
"%  c #775F2F",
"&  c #7B5C2E",
"*  c #664F30",
"=  c #775D34",
"-  c #7C5E32",
";  c #775F39",
":  c #7B5F39",
">  c #7D6133",
",  c #7D6139",
"<  c #805F32",
"1  c #816134",
"2  c #82643A",
"3  c #876B3B",
"4  c #8D6D3C",
"5  c #926D3C",
"6  c #986E3D",
"7  c #8F703C",
"8  c #907236",
"9  c #93733C",
"0  c #876F41",
"q  c #8C6E41",
"w  c #926F41",
"e  c #8E7343",
"r  c #937243",
"t  c #9C7443",
"y  c #977E46",
"u  c #9C7D45",
"i  c #95744B",
"p  c #977D4B",
"a  c #9C7E4A",
"s  c #A07D47",
"d  c #A17E49",
"f  c #9D8047",
"g  c #9E814B",
"h  c #9D8251",
"j  c #A28247",
"k  c #A1824C",
"l  c #A6894E",
"z  c #AA8A4F",
"x  c #A28352",
"c  c #AC8655",
"v  c #A68953",
"b  c #AB8C54",
"n  c #AC875A",
"m  c #AD8E59",
"M  c #B08C56",
"N  c #B28E5A",
"B  c #B98F5D",
"V  c #AA9055",
"C  c #AE905A",
"Z  c #B3935C",
"A  c #BF975D",
"S  c #BA945D",
"D  c #B89A5E",
"F  c #BB9B5E",
"G  c #BC985E",
"H  c #BD995F",
"J  c #BC995F",
"K  c #B48F62",
"L  c #B48F62",
"P  c #AE9263",
"I  c #B19160",
"U  c #B09260",
"Y  c #B39360",
"T  c #B79160",
"R  c #B59063",
"E  c #B29462",
"W  c #B69761",
"Q  c #B49463",
"!  c #B59763",
"~  c #B49664",
"^  c #B49461",
"/  c #B99362",
"(  c #B89762",
")  c #BB9662",
"_  c #BA9663",
"`  c #B59860",
"'  c #B79861",
"]  c #B79963",
"[  c #BB9B60",
"{  c #BA9A61",
"}  c #B89963",
"|  c #BA9963",
" . c #BB9B62",
".. c #BF9861",
"X. c #BE9A60",
"o. c #BF9B61",
"O. c #BE9962",
"+. c #BF9A63",
"@. c #BB9C63",
"#. c #BE9E63",
"$. c #B89A64",
"%. c #B99A64",
"&. c #BD9864",
"*. c #BE9965",
"=. c #BD9A64",
"-. c #BF9A65",
";. c #BE9B65",
":. c #BB9C65",
">. c #BF9C64",
",. c #BD9E65",
"<. c #BD9C67",
"1. c #BD9A64",
"2. c #B89A68",
"3. c #BD9969",
"4. c #BE9A6A",
"5. c #BC9E6A",
"6. c #BD9B69",
"7. c #C0985D",
"8. c #C0995E",
"9. c #C1995E",
"0. c #C39B5E",
"q. c #C0995E",
"w. c #C09763",
"e. c #C29961",
"r. c #C19A61",
"t. c #C19862",
"y. c #C09C60",
"u. c #C09864",
"i. c #C09B67",
"p. c #C19C65",
"a. c #C19E64",
"s. c #C19C67",
"d. c #C09C63",
"f. c #C09F6A",
"g. c #C49F6B",
"h. c #C19D6A",
"j. c #C4A16B",
"k. c #C4A16B",
/* pixels */
"S B z M B N h.O.O.o.H O.O.S <.) B B w.r.w.9.H 0.9.9.7.r.B S 6 6 Z S b M B B -.O.O.r.H o.O.S t._ B B *.w.r.9.7.9.9.9.9.r.S S 6 6 ",
"S Z M M B Z -.-.O.D H r.r.-.g.O.Z W w.-.w.H 0.0.F 9.r.t./ N t 6 B S M M B Z <.O.r.H H o.O.<.g.*.N / t.t.H D 9.r.F r.r.r.B N t 6 ",
"M B B N N c M b 9 9 M z d u N Z Z C Z Z m z b z Z Z Z Z b v b v B B N N N n b b 8 9 b z k d N I C Z W Z b b b b Z Z C V m v b n ",
"S Z S N M b c m 9 8 b b k x Z I E D C Z b v V b Z C Z C m m m C Z Z Z N M b b m 9 8 b b k k Z Z E Z Z C b b V b Z Z Z Z m m m m ",
"v b Z Z Z Z Z Z z l D Z k a a u j f f k u k b b V b Z ' C m 9 7 z b Z Z Z Z B Z z l F Z d a g u g f f k f j m v b b D ' m C 9 7 ",
"v M N Z Z Z Z ^ V z D Z u a h x g k g l u a m m m b Z E E Q e 9 v m N B Z Z Z Z m b D C a u h x g k g k f g m m m v P Z I ~ r e ",
"t w 1 < & < w r r 7 - - . + + X & % % % @ O , : O o o O > , X   r r < < < < q r r 4 - < o @ +   > % % % @ X > - O o X O = , X X ",
"r w < < < < w r r r < 1 . o o + % > > - O . , < X + o X , : O . r w < < < < r r r r < - . o + + > > > > @   , , o + o O , = @ . ",
"Z Z ) k.6 8 k.S | <.| $.5.2.h a %.:.| <.3.3.L L n N n N d a Q C Z Z ) k.6 8 k.D | ,.' $.5.2.h a %.:.| 6.3.3.L L n N n N d a 2.L ",
"V Z | D 9 9 A a.o.F F o.' ' x a %.O.<.O.-.) / T N n n c d k m Z m Z [ Z 6 9 H r.o.F [ [ ] ] x a %.[ p.t.-.) / S N n c c d d m L ",
"Z b Z Z Z B M z u u b V k k r e g g b v m b Z Z N N W Z I ^ b m Z V Z Z Z M M z u s V V g k r 9 g k b v m b Z Z Z N ^ ^ Z Z m m ",
"b v M m Z Z b M j j M z a g 7 r g g b m m V Z Z Z I Z Z Z ^ b v b v C N Z S M M j j M v a a 7 r g k v m m m Z Z Z Z Z Z Z E v x ",
"k g x g x c Z Z z z b b m b e r Z Z C W Z C M z M b u s y g j g g g k k v b Z Z z z b b C m r r Z E Z Z V Z z z b b u f y k g k ",
"g p h g I N W b b m c v m v e e P P m C Z D z V b b d k u g a a g p a a m m W b z M z x b v q e C I C C Z D b M b b k l u g u u ",
"o O O X = $ 1 > 9 r < & o o X + X + X @ - 1 & & & 1 3 r & > @ O O O @ X : & : < r r 1 & + o o + X @ X # % 1 & < & 1 3 e > > # X ",
"o o @ X 0 < - < r r < < $ o $ o o # o . > 1 < 1 1 > r r % > o X X @ + o 2 : & < r r 1 1 $ . $ o o + O X 1 < < 1 < < r e % > X X ",
"Z ^ _ 3._ 6.Z I m m m b _ _ -._ 3.3.%.-.i.-.-.| H H <.| m Z u k N Z _ -.~ 5.Z I m m m b -.%.2.] _ 3._ -.p.<.O.O.O.D <.| M Z u k ",
"Z B A A -.6.Z Z b b b N ) h.O.p.) O.H O.O.A H H F k.H O.D Z g g Z Z ) A -.-.B Z c c b N | <.| ] ) r.O.) H G H O.O.r.| | Z D g g ",
"B M M b Z Z Z Z Z Z C Z b m u u k g f k b b k j C Z a a g g e 9 Z N M M Z Z Z Z Z Z C Z b m f f k g u k b b k f Z Z g g g g 7 e ",
"Z Z m b m Z Z ) Z Z Z Z b m u x g f f f z b g u E ~ a a g h e r ^ Z b m m Z Z S Z Z Z Z b m g h g f f k z V k u Z D a y h h r r ",
"%.:.Z Z v m l z u u k k f f f f V V V b b V b C u x u x P P a a %.<.Z Z v b z z g u j g f f f f V V V b b b v Z u x u x P P a p ",
"] %.Z ) N V m M k k g g f h h h v v V v b V v m a g a x P P a x _ 2.C Z m N m M k g g g f g h h v l C V V C v m a a a h P P h h ",
"o + . . & & 5 w e e > % O   O   @ @ % , 0 e > = 2 > @   * + O X o o o . & < 6 w r r > > X X O   @ @ % > e e > = 2 , O   o O O O ",
"o . . . 1 < t w r e % ,   O O X . @ > , e r > = = - X o + X # o o o @ . < - t w w r & 2 X X O     @ % > 0 e > = = : o o @ X # + ",
":.5.4 r Z Z t.| O.:.I Z P C h h ' %.3.h.%.3.d d 3.%.^ ^ O.<.O.:.-.6.4 r Z S O.D | -.Z C P P h h 3.3.3.4.3.i.d d <.-.Z Z -.<.-.-.",
":.] r 9 m Z O.r.O.o.Z C D C g f <.| *.*.) -.d d -.) Z Z F F H | [ :.r 9 C Z O.r.r.O.E Z E C g a %._ -.*.) t.d d -.S Z Z D H H D ",
"v V z b S D Z N d d u g m b g k d k Z Z Z ) b C Z Z M b V M z V v V v b S S Z M s s u u V V g g d d Z Z Z ) v Z Z Z V b V V b z ",
"C C b b m N Z Z k k d k v b f k t d ^ ^ Z Z x b Z Z V z V z z z C C b b C Z Z Z k k k k b b f g u d W Z Z Z x m C Z V b V z z z ",
"v v g k f g c b Z Z b v j j 8 8 S Z Z M M b k k g k f f g k g k v l g k g g b b Z Z b c j j 8 9 ) B Z M b m k u g k g u j k g k ",
"C b k k g g m m E Z m b k k 9 9 Z Z Z ) m b g a g g a a g g h g m b k a g g m m ^ Z m m k g 8 9 N Z S Z N v k u a h g a g g h g ",
". @ & > : = +   o + - < 4 r r r 5 r & & . . - > O # O O O O O O o . - : : = + X o o - 2 4 r r t 9 r & & . . = , + # O O O O O O ",
". . > - : 2 o o o o < : r w r w r t & 1 . o - : o o O O + + O o o . < < - : o o o o : < r q r w r r & 1 . o > > X O o O @ + + + ",
"B Z c N L L h.%.-.-.%.-.-.) i.R N B -.<.-.-.O.<.-.| -.3.L R w w Z S c N N L h.2.-.-.| -.-.W 3.*.B L *.*.O.O.O.<.O.-.%.<.Z R w w ",
"S B b N B Z i.-.O.S O.o.-.t.g.*.B S O.<.O.H 9.0.A O.r.h.S N t 6 S S M N Z Z i.t.o.F O.o.O.-.g.-.N ^ u.t.H H H r.H o.0.o.S N t t ",
"B N N N m b M b 9 9 M z d u m ^ C I Z Z m z b z Z Z Z C b n v m N N B N N N m b 8 6 b b d u N Z Z C ^ Z m b b b Z Z Z Z m v c n ",
"S Z S N N b v m 9 9 b b k x I Q E Z Z Z b v V b Z Z C C m m m C Z S Z N c b c m 9 8 b z k x Z I E Z Z Z b v V b Z Z C C m m m m ",
"z b Z Z Z Z B Z z l F Z k a u u g f g k f k m v V b E ' C C 9 7 z b Z Z Z Z N Z z l D Z u u g u g f f k f k m v b b Z ' m m 9 7 ",
"v m B Z Z Z Z Z V b D Z u u h x g k g k u g m m v b C E P Q e 9 v m N Z Z Z E Z m b D C a a h x g k f g f g C m m b P E E Q r e ",
"r r 1 & & < w i r 4 & > o + o X % > & % @ X , - o o O O = ,   o t w < < < < w r r 4 < < + @ + X > > % % @ X > = O o X o > > X X ",
"r 5 < < < < r r r 9 - - . o + # & > > > o X , : o @ o o 2 - o X w w < < < < r r r r < - . o + # & > > > @ . > , o # O O , = @ X ",
"Z ) | h.9 5 k.S F #.' :.5.2.h a @.@.' :.3.3.R E n N n n d d W Z Z Z | k.6 8 k.Z H #.' [ 6.2.h a %.:.W 3.3.3.^ L n n n n x d Q E ",
"b Z H D 9 9 D r.y.7.F [ ] ! k a $.@.o.o.-.) / L N b n c d d m Z m Z [ Z 6 6 D k.#.F [ :.' ~ x a %.[ -.-.*.) / S N N c c d d m L ",
"C m Z Z B Z M z u u b V k k r e g g V b b b Z N Z Z S Z L I m m V m Z Z Z M M z u u m V k k r e g k b b m b Z Z N N E W Z Z m m ",
"b v C M Z Z M M j j M z a a 7 r g g b m m Z Z Z Z Z Z Z I W v v m v Z m Z S M b j j b z u a 7 r g k b b m m Z Z Z Z Z Z Z Z v v ",
"g g x k z z Z Z b z z M C b r r C Z Z E N Z b z M z s u y g k g k g x k v b Z Z z z M b C m r 9 Z Z C Z C Z z z M b u f u g g k ",
"h p a a m m D b v m b v m x e e P P m Z I W b b z V j l u a g a g y p a m m ^ m b M v x b v e r U P m Z Z D b b z b k l u a u a ",
"O O + o = & > - r r 1 & + o o + X # X @ & 1 & & & 1 3 e > > @ X O @ O X - = < < 9 r 1 & + o o + O # X @ > > & < & 1 3 e > > # X ",
"o o + o 2 < - 1 r w < < o o $ + o o o o > 1 < 1 < < e r % > o o X o # o 2 < - < r r 1 < $ . + o o + o X 1 < & 1 < 1 r e % > X X ",
"Z Z ) -.%.6.Z Z m m m c _ _ 3.*.-.-._ %.i.-.O.O.O.| <.| Z Z u x N Z *.i.%.6.N Z m m m b -.%.2.] ) -._ -.p.<.O.O.O.| <.| M Z u x ",
"Z B A ) -.-.Z Z b c b N %.<.) -.D o.O.O.O.O.H 0.H o.D o.Z Z g u Z B S ) -.<.Z Z c c b N | <.| ] ) O.O.) O.F H o.H r.D o.Z D f g ",
"Z N m b Z Z Z Z ^ Z C Z b m u u g k f k v b k f C Z g g a a e e Z N N b Z Z Z Z Z Z C Z b m f f k g u k b z k f C Z g g g g e 9 ",
"Z B b b N Z Z S Z Z Z Z b m k k g f f f v b k f D W u a h h r i ^ Z b b m Z Z S Z Z Z Z b m g h g f f g v b k a D Z g p h h r e ",
"| <.Z Z b b k z j f f k a f y f V V V b z b v C u g a x E P a a %.<.Z Z b b k z g u k f f f f f V V C V z V v C u k u x P P a p ",
"] :.Z Z C C m Z j k g h p h h h l V V b m Z v m a g a h P P h h ] 2.C Z m N M Z k g g g f g h h v z V V m C v m a h a h P P x h ",
"o o . . & < 5 5 r r > > X X O   @ @ > , 3 e > = , > O   + X X X o @ o . & < 6 w r r > > X X O   @ @ % > 3 e > > 2 : O   + X * O ",
"o o o . 1 < 6 r r r & > X X O X   X % , e e > : > : o o # X # o o o o . < - t w w r & 2   O O     X > > e e > = = : o o o X # X ",
"5.5.7 r Z Z -.) O.:.Z C Q P h h 3.3.3.4.3.3.d d 3.%.Z Z %.:.-.:.-.6.7 r Z S r.) | -.Z C P P h h 3.3.3.h.*.3.d d 6.-.Z Z -.<.-.-.",
":.:.9 9 M Z O.r.<.o.Z Z E C f g -.*._ *.) -.d s -.A Z S D o.H F :.%.r 9 V Z O.r.p.O.Z Z E C g u _ _ *.*.) *.d s -.D Z Z S H H H ",
"v m k b S W N Z s s s f v V g g u k Z Z Z W c Z Z Z V b b V z V b m l b Z S Z C d d u u V V g g u x Z Z Z ) b Z Z Z V b V V b V ",
"V C b m m Z Z I k k d k v v g g u d ) Z Z Z x b Z C V b b z z b V C b b Z Z Z Z k k d k b b g g t d W I Z Z x m Z C V b V z z z ",
"v v f g g g b b Z Z b x g j 8 8 S N Z M b b g g g k g g g g k k v l f k f d b v Z Z v v j j 8 9 S Z S M b b k u g g g f j f g k ",
"C b k k a a m m P Z Z m k g 9 9 Z Z S Z m b k p g h g a g g g h C b k a g h m m ^ I Z b k j 8 9 Z Z Z S m b k a g h a g g g h g ",
". o % > : - + X o o - > 4 r 9 r r 9 < & . o = , O * O O O O O X . o - : - = + X o + = > q r r r e 9 < & X o > , + O O O O O O O ",
"o o : : : : o O + + , , i r r r r r & : o o ; , O O O O * * O * o o : : : : + + * + < - i w r w r i & - X X ; , O O O O * * * * "
};
