/* XPM */
static char *fe560e7a6a6b4117b4bc989ccff2e8a1Ryz4wRm1Kx7vrE5O[] = {
/* columns rows colors chars-per-pixel */
"64 64 185 2 ",
"   c #000000",
".  c #0E0A05",
"X  c #0B0A08",
"o  c #14110C",
"O  c #1A140C",
"+  c #151412",
"@  c #1B1713",
"#  c #1B1813",
"$  c #291807",
"%  c #23190E",
"&  c #2C1B0C",
"*  c #321E0A",
"=  c #211C13",
"-  c #201C18",
";  c #2A210E",
":  c #272010",
">  c #2A2314",
",  c #24201D",
"<  c #2E261B",
"1  c #2E281A",
"2  c #332716",
"3  c #31261D",
"4  c #332A1D",
"5  c #3A2D1C",
"6  c #372A15",
"7  c #3E331F",
"8  c #272521",
"9  c #2E2B25",
"0  c #292522",
"q  c #352B22",
"w  c #392E23",
"e  c #342F29",
"r  c #373226",
"t  c #3D3425",
"y  c #3F3827",
"u  c #35302B",
"i  c #3D362A",
"p  c #3F382E",
"a  c #5A360D",
"s  c #412B13",
"d  c #4E3016",
"f  c #42341C",
"g  c #433615",
"h  c #533415",
"j  c #413524",
"k  c #443927",
"l  c #4A3C24",
"z  c #403629",
"x  c #45392A",
"c  c #4A3E2B",
"v  c #443F39",
"b  c #453E32",
"n  c #764B1E",
"m  c #6D581C",
"M  c #4E422D",
"N  c #52442D",
"B  c #524327",
"V  c #4E4332",
"C  c #524532",
"Z  c #594735",
"A  c #564932",
"S  c #5B4D35",
"D  c #5C4E38",
"F  c #554A39",
"G  c #5F523B",
"H  c #6B4422",
"J  c #614D37",
"K  c #6F6343",
"L  c #736543",
"P  c #756A44",
"I  c #646058",
"U  c #6B675D",
"Y  c #6B6453",
"T  c #7E7552",
"R  c #6E6960",
"E  c #78736B",
"W  c #945602",
"Q  c #995603",
"!  c #8A561E",
"~  c #955712",
"^  c #965A15",
"/  c #9D5C14",
"(  c #9D5E19",
")  c #9A5412",
"_  c #A25C0B",
"`  c #A25E17",
"'  c #A25E1B",
"]  c #9D7C0A",
"[  c #816B1B",
"{  c #9E6517",
"}  c #A16813",
"|  c #A7611B",
" . c #A06F19",
".. c #B16716",
"X. c #A2731B",
"o. c #BD7019",
"O. c #A36521",
"+. c #B06D29",
"@. c #CA6F09",
"#. c #C86F05",
"$. c #C6700A",
"%. c #DC7E08",
"&. c #D2750F",
"*. c #CD7914",
"=. c #C5731A",
"-. c #CA761B",
";. c #CC781C",
":. c #D27A17",
">. c #D27A1B",
",. c #D87F1D",
"<. c #DC7F14",
"1. c #C67721",
"2. c #CA7922",
"3. c #D47F20",
"4. c #9C8802",
"5. c #9D8406",
"6. c #9E871D",
"7. c #9F891A",
"8. c #A58F15",
"9. c #A28C1D",
"0. c #A9881D",
"q. c #A2801B",
"w. c #A89216",
"e. c #9A8120",
"r. c #A08720",
"t. c #A38C20",
"y. c #DF8420",
"u. c #9D8F44",
"i. c #9A9548",
"p. c #999142",
"a. c #938755",
"s. c #99975A",
"d. c #979A5C",
"f. c #99995C",
"g. c #A99A45",
"h. c #9B876F",
"j. c #9D8C65",
"k. c #9C9B63",
"l. c #99976F",
"z. c #9A9C6B",
"x. c #878276",
"c. c #888378",
"v. c #918677",
"b. c #9B8773",
"n. c #959376",
"m. c #A19B63",
"M. c #A29C68",
"N. c #A79F78",
"B. c #A2A26D",
"V. c #ABA572",
"C. c #8F8B88",
"Z. c #8F8B82",
"A. c #938D82",
"S. c #928D8B",
"D. c #97938E",
"F. c #999887",
"G. c #959594",
"H. c #999491",
"J. c #9E9E9A",
"K. c #9B9996",
"L. c #B09C89",
"P. c #A39F9C",
"I. c #A4A19F",
"U. c #9B9EA5",
"Y. c #A6AAAB",
"T. c #B3AFAC",
"R. c #BBB7AF",
"E. c #B9B2A1",
"W. c #BEBCB9",
"Q. c #BCBDB5",
"!. c #C6BCAA",
"~. c #CCBFAC",
"^. c #C1BFBA",
"/. c #CEC7B6",
"(. c #C3C1BB",
"). c #C8C4BD",
"_. c #CCCAC5",
"`. c #C3C7C9",
"'. c #C2C8CA",
"]. c #CECCCB",
"[. c #CAC6C2",
"{. c #D4D0C9",
"}. c #CACED0",
"|. c #D0D5D5",
" X c #D8D4D3",
/* pixels */
"                                                                                                                                ",
"                                                                                                                                ",
"                                                                                                                                ",
"                                                                                                                                ",
"                                                                                                                                ",
"                                                                                                                                ",
"                                                                                                                                ",
"                                                                                                                                ",
"                                                                                                                                ",
"                                                                                                                                ",
"                                                                                                                                ",
"                                                                                                                                ",
"                                                                                                                                ",
"                                                                                                                                ",
"                                                                                                                                ",
"                                                                                                                                ",
"                                                                                                                                ",
"                                                                                                                                ",
"                                                                                                                                ",
"                                                                                                                                ",
"                                                                                                                                ",
"                                                                                                                                ",
"                                                                                                                                ",
"                                                                                                                                ",
"                                                                                                                                ",
"                                                                                                                                ",
"                                                                                                                                ",
"                                                                                                                                ",
"                                                                                                                                ",
"                                                                                                                                ",
"                                                                          . O % s h H n ! +.` ' ` | O.                          ",
"                                                                      5 e.6.9.0.} _ _ / ` ;.y.,.:.:.y.n                         ",
"                                                                      ; 9.8.8.9. .( ( { ^ ..,.;.-.-.:.=.                        ",
"                                                                        m w.9.9.q.( ( / ^ ' ;.-.-.-.*.y.d                       ",
"                                                                        g w.6.7.9.{ ) { / ^ o.>.-.-.=.:.(                       ",
"                                                                          9.7.6.9. .) / / ^ ..&.#.@.$.#.*.                      ",
"                                                                          [ 4.5.4.] Q W W W ^ 1.2.-.=.=.*.a                     ",
"                                                                          f g.u.p.i.j.b.b.b.v.E./.!.!.!.~.L.                    ",
"                                                                            N.B.z.z.F.U.U.U.G.Y.}.'.'.'.'.|.                    ",
"                                                                            T B.d.d.z.K.G.G.D.H.W.[.^.^.^._.E                   ",
"                                                                            M B.f.f.k.F.G.G.H.C.T.[.^.^.^.^.R.                  ",
"                                                                              m.f.f.s.F.G.H.H.C.I.[.(.^.W.Q.[.e                 ",
"                                                                              a.k.s.s.n.G.H.D.S.H.W.^.W.W.W.^.A.                ",
"                                                                              G V.M.m.z.J.I.P.I.K.W. X].].]._.{.                ",
"                                                                                L L L P Y I U R R E c.c.A.A.A.A.v               ",
"                                                                                c N A N l 6 4 2 1 4 t f f l f 5 x               ",
"                                                                                w J J J S c j k y z N N N N N N c               ",
"                                                                                  J S S G c j j j t M N N N N C c e             ",
"                                                                                  Z S S D N j j j t k C A M M N M V             ",
"                                                                                  l Z S S F k t z y j c A V N M M V             ",
"                                                                                  z N J S D c t z z t k M M V M M l i           ",
"                                                                                    C N A S M t y z t t M C C V C M C           ",
"                                                                                    V N A A M 5 q w w w x c x c c c 5 9         ",
"                                                                                    9 c N N A t q q q q w t t t t t 2 p         ",
"                                                                                      c M M A x 3 q q 3 4 t t t t t t 6         ",
"                                                                                      C B N N V q q q 3 4 r t k z y j > e       ",
"                                                                                      z l N N C i 1 q 4 1 r y y t t w 5 r       ",
"                                                                                      9 l N M N z < q 4 4 4 r t y t t j 5       ",
"                                                                                        N B M N c q 4 4 4 4 r t y i t t > e     ",
"                                                                                        b l M M V w 1 9 4 1 r r i r r t 4 i     ",
"                                                                                        e f N B C i > < 1 1 1 r w r r t t >     ",
"                                                                                          l M M C c > = > > > 1 q 4 4 3 4 % e   ",
"                                                                                          F N A A S 5 : > > > 2 4 4 4 4 4 < 2   ",
"                                                                                          , : < < q = o O O O O # # % @ @ O o   "
};
